<svg width="26" height="28" viewBox="0 0 26 28" fill="none" xmlns="http://www.w3.org/2000/svg">
<path d="M12.6676 12.8413L24.4123 6.17106C24.2084 5.97669 23.9775 5.81286 23.7267 5.68468L14.9297 0.674042C14.2478 0.25488 13.4677 0.0224241 12.6676 0C11.8655 0.0212839 11.0831 0.253312 10.3991 0.672767L1.60973 5.68468C1.35692 5.81594 1.12219 5.97943 0.911431 6.17106L12.6676 12.8413ZM11.8136 27.1277V14.3374L0.11994 7.65574C0.0445212 7.96561 0.0110319 8.2842 0.0203671 8.60298V18.314C-0.0545433 18.9597 0.0783555 19.6124 0.399757 20.1774C0.721158 20.7424 1.21432 21.1902 1.8076 21.4557L11.5774 27.0115C11.6494 27.0626 11.7291 27.1018 11.8136 27.1277ZM13.5216 27.1277C13.6112 27.1012 13.697 27.0635 13.777 27.0153L23.5327 21.4557C24.1275 21.1922 24.6221 20.7447 24.9438 20.1793C25.2655 19.6138 25.3973 18.96 25.3199 18.314V8.60298C25.3293 8.2842 25.2958 7.96561 25.2204 7.65574L13.5216 14.3374V27.1277Z" fill="#34446A"/>
</svg>
