<svg width="33" height="22" viewBox="0 0 33 22" fill="none" xmlns="http://www.w3.org/2000/svg">
<path d="M27.0793 18.9555C28.5687 18.9555 29.7737 17.7369 29.7737 16.2476L29.7872 2.70793C29.7872 1.20503 28.5687 0 27.0793 0H5.41586C3.91296 0 2.70793 1.20503 2.70793 2.70793V16.2476C2.70793 17.7369 3.91296 18.9555 5.41586 18.9555H0V21.6634H32.4952V18.9555H27.0793ZM5.41586 16.2476V2.70793H27.0793V16.2611L5.41586 16.2476ZM17.6015 6.94584C12.3346 7.67698 10.236 11.2785 9.47776 14.8936C11.3598 12.3617 13.8375 11.2108 17.6015 11.2108V14.176L23.0174 9.11218L17.6015 4.0619V6.94584Z" fill="#34446A"/>
</svg>
