<svg width="26" height="22" viewBox="0 0 26 22" fill="none" xmlns="http://www.w3.org/2000/svg">
<path d="M3.48209 21.9638H22.5166C22.9825 22.0393 23.4583 21.9963 23.9062 21.8383C24.3541 21.6802 24.7619 21.4114 25.0972 21.0531C25.4325 20.6949 25.6862 20.257 25.838 19.7742C25.9899 19.2914 26.0358 18.777 25.9722 18.2716V3.72818C26.0358 3.22297 25.9899 2.70867 25.8381 2.22599C25.6863 1.74332 25.4327 1.30553 25.0976 0.947299C24.7624 0.589064 24.3548 0.320216 23.9071 0.162044C23.4593 0.003871 22.9837 -0.0392827 22.5179 0.0359997H3.48209C3.01626 -0.0392827 2.54064 0.003871 2.09289 0.162044C1.64513 0.320216 1.23754 0.589064 0.902386 0.947299C0.56723 1.30553 0.313714 1.74332 0.161912 2.22599C0.0101101 2.70867 -0.0358096 3.22297 0.027789 3.72818V18.2716C-0.0358096 18.7768 0.0101101 19.2911 0.161912 19.7738C0.313714 20.2565 0.56723 20.6942 0.902386 21.0525C1.23754 21.4107 1.64513 21.6796 2.09289 21.8377C2.54064 21.9959 3.01626 22.0391 3.48209 21.9638ZM18.2974 10.9719C17.8464 10.5148 17.2543 10.256 16.6365 10.2458C16.0218 10.2468 15.4309 10.5037 14.9863 10.9633L10.0182 15.7704L7.98223 13.7687C7.58225 13.3527 7.05461 13.111 6.5003 13.0899C5.96652 13.1117 5.45979 13.3498 5.08067 13.7572L1.79868 16.9615V3.82289C1.76831 3.57175 1.79136 3.31642 1.86609 3.07641C1.94081 2.8364 2.06523 2.61806 2.22983 2.43806C2.39443 2.25807 2.59486 2.12119 2.8158 2.03789C3.03674 1.95459 3.27235 1.92707 3.50463 1.95743H22.4953C22.7274 1.92822 22.9626 1.95655 23.183 2.04025C23.4035 2.12396 23.6034 2.26086 23.7678 2.44059C23.9321 2.62032 24.0566 2.83817 24.1317 3.07765C24.2068 3.31714 24.2306 3.57198 24.2013 3.82289V16.973L18.2974 10.9719ZM8.22348 11.1011C8.91011 11.0973 9.56746 10.7995 10.052 10.2728C10.5365 9.74613 10.8089 9.03329 10.8096 8.28995C10.8071 7.54719 10.5342 6.83543 10.0501 6.30914C9.56592 5.78285 8.90957 5.48451 8.22348 5.47884C7.53599 5.48262 6.87767 5.78004 6.39166 6.30645C5.90565 6.83286 5.63124 7.54569 5.62811 8.28995C5.62951 9.03479 5.90336 9.74871 6.38974 10.2755C6.87613 10.8023 7.53545 11.0992 8.22348 11.1011Z" fill="#34446A"/>
</svg>
