<svg width="26" height="26" viewBox="0 0 26 26" fill="none" xmlns="http://www.w3.org/2000/svg">
<path d="M12.7532 0C5.70638 0 0 5.71915 0 12.766C0 19.8128 5.70638 25.5319 12.7532 25.5319C19.8128 25.5319 25.5319 19.8128 25.5319 12.766C25.5319 5.71915 19.8128 0 12.7532 0ZM8.29787 7.65957C9.35745 7.65957 10.2128 8.51489 10.2128 9.57447C10.2128 10.634 9.35745 11.4894 8.29787 11.4894C7.2383 11.4894 6.38298 10.634 6.38298 9.57447C6.38298 8.51489 7.2383 7.65957 8.29787 7.65957ZM12.766 20.4255C9.85532 20.4255 7.37872 18.3064 6.38298 15.3191H19.1489C18.1532 18.3064 15.6766 20.4255 12.766 20.4255ZM17.234 11.4894C16.1745 11.4894 15.3191 10.634 15.3191 9.57447C15.3191 8.51489 16.1745 7.65957 17.234 7.65957C18.2936 7.65957 19.1489 8.51489 19.1489 9.57447C19.1489 10.634 18.2936 11.4894 17.234 11.4894Z" fill="#34446A"/>
</svg>
