<svg width="26" height="27" viewBox="0 0 26 27" fill="none" xmlns="http://www.w3.org/2000/svg">
<path d="M22.9787 0.723633H2.55319C1.14894 0.723633 0.0127659 1.87257 0.0127659 3.27682L0 26.2556L5.10638 21.1492H22.9787C24.383 21.1492 25.5319 20.0002 25.5319 18.596V3.27682C25.5319 1.87257 24.383 0.723633 22.9787 0.723633ZM6.38298 9.6598H19.1489C19.8511 9.6598 20.4255 10.2343 20.4255 10.9364C20.4255 11.6385 19.8511 12.213 19.1489 12.213H6.38298C5.68085 12.213 5.10638 11.6385 5.10638 10.9364C5.10638 10.2343 5.68085 9.6598 6.38298 9.6598ZM14.0426 16.0428H6.38298C5.68085 16.0428 5.10638 15.4683 5.10638 14.7662C5.10638 14.0641 5.68085 13.4896 6.38298 13.4896H14.0426C14.7447 13.4896 15.3191 14.0641 15.3191 14.7662C15.3191 15.4683 14.7447 16.0428 14.0426 16.0428ZM19.1489 8.38321H6.38298C5.68085 8.38321 5.10638 7.80874 5.10638 7.10661C5.10638 6.40448 5.68085 5.83002 6.38298 5.83002H19.1489C19.8511 5.83002 20.4255 6.40448 20.4255 7.10661C20.4255 7.80874 19.8511 8.38321 19.1489 8.38321Z" fill="#34446A"/>
</svg>
